<svg id="Capa_1" enable-background="new 0 0 512 512" height="512" viewBox="0 0 512 512" width="512" xmlns="http://www.w3.org/2000/svg"><g><path d="m331 121h111.211l-111.211-112.211z"/><path d="m451 151h-150v-151h-240v512h390zm-210 90h30v30h-30zm-75-60c-.1-.047-45-1.896-45-45 0-19.521 12.583-36.004 30-42.22v-32.78h30v32.78c17.417 6.215 30 22.7 30 42.22h-30c0-8.276-6.724-15-15-15s-15 6.724-15 15 6.724 15 15 15c.1.047 45 1.896 45 45 0 19.521-12.583 36.006-30 42.22v32.78h-30v-32.78c-17.417-6.216-30-22.7-30-42.22h30c0 8.276 6.724 15 15 15s15-6.724 15-15-6.724-15-15-15zm225 270h-270v-30h270zm0-60h-270v-30h270zm0-60h-270v-30h270zm0-60h-90v-30h90z"/></g></svg>