<svg id="bold_1_" enable-background="new 0 0 24 24" height="512" viewBox="0 0 24 24" width="512" xmlns="http://www.w3.org/2000/svg"><path d="m7 8.25v9.75h-6v-9.75c0-.69.56-1.25 1.25-1.25h3.5c.69 0 1.25.56 1.25 1.25z"/><path d="m15 4.25v13.75h-6v-13.75c0-.69.56-1.25 1.25-1.25h3.5c.69 0 1.25.56 1.25 1.25z"/><path d="m23 11.25v6.75h-6v-6.75c0-.69.56-1.25 1.25-1.25h3.5c.69 0 1.25.56 1.25 1.25z"/><path d="m23.25 21h-22.5c-.414 0-.75-.336-.75-.75s.336-.75.75-.75h22.5c.414 0 .75.336.75.75s-.336.75-.75.75z"/></svg>