<?xml version="1.0"?>
<svg xmlns="http://www.w3.org/2000/svg" xmlns:xlink="http://www.w3.org/1999/xlink" version="1.1" id="Capa_1" x="0px" y="0px" viewBox="0 0 356.175 356.175" style="enable-background:new 0 0 356.175 356.175;" xml:space="preserve" width="512px" height="512px"><g><g>
	<g>
		<path d="M258,179.827c-48.697,0-88.174,39.477-88.174,88.174c0,48.697,39.477,88.174,88.174,88.174s88.174-39.477,88.174-88.174    c0,0,0-0.001,0-0.001C346.119,219.326,306.675,179.882,258,179.827z M295.353,264.687c-2.997,3.228-8.044,3.415-11.272,0.418    c-0.004-0.004-0.009-0.008-0.013-0.012l-17.981-16.773v57.735c0,4.418-3.582,8-8,8s-8-3.582-8-8V248.32l-18.068,16.776    c-1.495,1.381-3.457,2.146-5.492,2.143c-4.418,0.001-8.001-3.58-8.002-7.998c0-2.222,0.923-4.344,2.55-5.858l31.475-29.296    c3.071-2.858,7.829-2.858,10.9,0l31.486,29.3C298.17,256.393,298.356,261.451,295.353,264.687z" data-original="#000000" class="active-path" data-old_color="#000000" fill="#FFFFFF"/>
	</g>
</g><g>
	<g>
		<path d="M210.58,156.776c-23.629,8.546-54.793,13.255-87.927,13.255l0,0c-33.136,0-64.375-4.709-88-13.257    c-10.686-3.865-18.566-8.065-24.566-12.342v56.661c0,14.89,42.762,35.657,112.544,35.657c12.226,0.018,24.442-0.685,36.585-2.106    c11.856-34.305,40.514-60.107,75.871-68.31v-21.9C229.087,148.711,221.261,152.911,210.58,156.776z M143.087,209.087h-40    c-4.418,0-8-3.582-8-8s3.582-8,8-8h40c4.418,0,8,3.582,8,8S147.506,209.087,143.087,209.087z" data-original="#000000" class="active-path" data-old_color="#000000" fill="#FFFFFF"/>
	</g>
</g><g>
	<g>
		<path d="M122.631,0C52.849,0,10,20.768,10,35.657s42.849,35.657,112.631,35.657s112.63-20.768,112.63-35.657S192.413,0,122.631,0z    " data-original="#000000" class="active-path" data-old_color="#000000" fill="#FFFFFF"/>
	</g>
</g><g>
	<g>
		<path d="M155.203,251.179L155.203,251.179c-10.564,1.04-21.459,1.571-32.55,1.571c-33.136,0-64.375-4.709-88-13.259    c-10.686-3.865-18.566-8.064-24.566-12.342v57.238c0,14.889,42.805,35.656,112.587,35.656c14.539,0.019,29.06-0.99,43.457-3.018    C155.343,296.876,151.502,273.732,155.203,251.179z M143.087,293.087h-40c-4.418,0-8-3.582-8-8s3.582-8,8-8h40    c4.418,0,8,3.582,8,8S147.506,293.087,143.087,293.087z" data-original="#000000" class="active-path" data-old_color="#000000" fill="#FFFFFF"/>
	</g>
</g><g>
	<g>
		<path d="M210.576,74.049c-23.635,8.554-54.8,13.265-87.923,13.265c-33.123,0-64.365-4.711-88-13.265    c-10.684-3.862-18.566-8.062-24.566-12.344v56.67c0,14.889,42.718,35.656,112.5,35.656s112.5-20.767,112.5-35.656v-56.67    C229.087,65.983,221.259,70.183,210.576,74.049z M143.087,127.087h-40c-4.418,0-8-3.582-8-8s3.582-8,8-8h40c4.418,0,8,3.582,8,8    S147.506,127.087,143.087,127.087z" data-original="#000000" class="active-path" data-old_color="#000000" fill="#FFFFFF"/>
	</g>
</g></g> </svg>
