<?xml version="1.0"?>
<svg xmlns="http://www.w3.org/2000/svg" id="Layer_1" enable-background="new 0 0 512 512" height="512px" viewBox="0 0 512 512" width="512px"><g><g><path d="m497 224.933h-81.4v-43.054l92.007-92.006c2.813-2.813 4.393-6.628 4.393-10.606s-1.58-7.793-4.394-10.606l-64.266-64.268c-5.856-5.858-15.354-5.858-21.213 0l-27.74 27.74h-138.387c-3.979 0-7.794 1.581-10.606 4.394l-59.873 59.873h-74.121c-8.284 0-15 6.716-15 15v113.533h-81.4c-8.284 0-15 6.716-15 15v257.067c0 8.284 6.716 15 15 15h482c8.284 0 15-6.716 15-15v-257.067c0-8.284-6.716-15-15-15zm-234.787-162.8h138.387c3.979 0 7.794-1.58 10.606-4.393l21.527-21.527 43.054 43.053-81.4 81.4h-74.12c-9.447 0-17.133-7.686-17.133-17.133s7.686-17.133 17.133-17.133h48.2c8.284 0 15-6.716 15-15s-6.716-15-15-15h-140.521zm-135.813 64.267h65.333 84.623c-2.08 5.313-3.223 11.093-3.223 17.133 0 25.989 21.144 47.133 47.133 47.133h65.334v98.534h-259.2zm355.6 355.6h-452v-98.533h452zm0-128.533h-452v-98.534h66.4v34.267h-17.133c-8.284 0-15 6.716-15 15s6.716 15 15 15h353.467c8.284 0 15-6.716 15-15s-6.716-15-15-15h-17.134v-34.267h66.4z" data-original="#000000" class="active-path" data-old_color="#000000" fill="#FFFFFF"/><path d="m175.667 190.666h64.267c8.284 0 15-6.716 15-15s-6.716-15-15-15h-64.267c-8.284 0-15 6.716-15 15s6.716 15 15 15z" data-original="#000000" class="active-path" data-old_color="#000000" fill="#FFFFFF"/><path d="m336.333 224.933h-160.666c-8.284 0-15 6.716-15 15s6.716 15 15 15h160.666c8.284 0 15-6.716 15-15s-6.716-15-15-15z" data-original="#000000" class="active-path" data-old_color="#000000" fill="#FFFFFF"/></g></g> </svg>
