<?xml version="1.0"?>
<svg xmlns="http://www.w3.org/2000/svg" id="Layer_1" enable-background="new 0 0 480 480" height="512px" viewBox="0 0 480 480" width="512px"><g><path d="m343.06 217c-57.9 0-105 47.1-105 105s47.1 105 105 105 105-47.1 105-105-47.1-105-105-105zm-2.386 95.873 9.544 2.982c10.074 3.148 16.842 12.354 16.842 22.907v3.238c0 11.519-8.159 21.165-19 23.472v2.528c0 4.418-3.582 8-8 8s-8-3.582-8-8v-4.68c-7.713-3.996-13-12.05-13-21.32 0-4.418 3.582-8 8-8s8 3.582 8 8c0 4.411 3.589 8 8 8s8-3.589 8-8v-3.237c0-3.518-2.256-6.586-5.614-7.636l-9.544-2.982c-10.074-3.148-16.842-12.354-16.842-22.907v-3.238c0-10.429 6.689-19.321 16-22.624v-3.376c0-4.418 3.582-8 8-8s8 3.582 8 8v3.376c9.311 3.303 16 12.195 16 22.624 0 4.418-3.582 8-8 8s-8-3.582-8-8c0-4.411-3.589-8-8-8s-8 3.589-8 8v3.237c0 3.518 2.256 6.586 5.614 7.636zm-181.614-109.873h-45c-4.418 0-8-3.582-8-8v-35c0-4.418 3.582-8 8-8h45c4.418 0 8 3.582 8 8v35c0 4.418-3.582 8-8 8zm145.877-126v-53.02c0-7.125 8.612-10.695 13.653-5.66l61.099 61.02c5.045 5.038 1.477 13.66-5.653 13.66h-53.099c-8.837 0-16-7.163-16-16zm-137.877 150v35c0 4.418-3.582 8-8 8h-45c-4.418 0-8-3.582-8-8v-35c0-4.418 3.582-8 8-8h45c4.418 0 8 3.582 8 8zm16-32v-35c0-4.418 3.582-8 8-8h48c4.418 0 8 3.582 8 8v35c0 4.418-3.582 8-8 8h-48c-4.418 0-8-3.582-8-8zm0 67v-35c0-4.418 3.582-8 8-8h48c4.418 0 8 3.582 8 8v35c0 4.418-3.582 8-8 8h-48c-4.418 0-8-3.582-8-8zm141-102v35c0 4.418-3.582 8-8 8h-45c-4.418 0-8-3.582-8-8v-35c0-4.418 3.582-8 8-8h45c4.418 0 8 3.582 8 8zm-99.142 135.725c1.123-4.988-2.69-9.725-7.804-9.725h-103.054c-13.255 0-24-10.745-24-24v-102c0-13.255 10.745-24 24-24h202c13.255 0 24 10.745 24 24v33.106c0 4.303 3.405 7.82 7.705 7.985 13.492.518 26.733 3.268 39.291 8.187 5.284 2.07 11.004-1.733 11.004-7.408v-84.87c0-4.418-3.582-8-8-8h-69.123c-17.673 0-32-14.327-32-32v-69c0-4.418-3.582-8-8-8h-216.997c-17.673 0-32 14.327-32 32v416c0 17.673 14.327 32 32 32h302c17.64 0 32-14.36 32-32l.003-5.821c.003-5.62-5.645-9.512-10.878-7.462-90.554 35.479-183.153-45.684-162.147-138.992zm-126.858 26.275h78c4.418 0 8 3.582 8 8s-3.582 8-8 8h-78c-4.418 0-8-3.582-8-8s3.582-8 8-8zm98 76h-98c-4.418 0-8-3.582-8-8s3.582-8 8-8h98c4.418 0 8 3.582 8 8s-3.582 8-8 8z" data-original="#000000" class="active-path" data-old_color="#000000" fill="#FFFFFF"/></g> </svg>
