<?xml version="1.0"?>
<svg xmlns="http://www.w3.org/2000/svg" id="Layer_1" enable-background="new 0 0 512 512" height="512px" viewBox="0 0 512 512" width="512px"><g><g><path d="m168 100v-93.802c0-3.633-3.802-6.159-7.063-4.555-1.56.767-2.999 1.791-4.251 3.043l-88 88c-1.253 1.252-2.276 2.691-3.043 4.251-1.604 3.26.922 7.063 4.555 7.063h93.802c2.209 0 4-1.791 4-4z" data-original="#000000" class="active-path" data-old_color="#000000" fill="#FFFFFF"/><path d="m412 0h-207c-2.761 0-5 2.239-5 5v95c0 19.882-16.118 36-36 36h-95c-2.761 0-5 2.239-5 5v335c0 19.882 16.118 36 36 36h312c19.882 0 36-16.118 36-36v-440c0-19.882-16.118-36-36-36zm-140 381.975v10.025c0 8.836-7.163 16-16 16s-16-7.164-16-16v-10.015c-24.054-6.144-42.844-25.856-47.11-51.343-1.459-8.715 4.424-16.963 13.139-18.422 8.714-1.462 16.963 4.424 18.422 13.139 2.583 15.436 15.852 26.641 31.549 26.641 17.645 0 32-14.355 32-32s-14.355-32-32-32c-35.29 0-64-28.71-64-64 0-29.767 20.427-54.852 48-61.975v-10.025c0-8.836 7.163-16 16-16s16 7.164 16 16v10.015c24.054 6.144 42.844 25.856 47.11 51.343 1.459 8.715-4.424 16.963-13.139 18.422-8.711 1.46-16.962-4.424-18.422-13.139-2.583-15.436-15.852-26.641-31.549-26.641-17.645 0-32 14.355-32 32s14.355 32 32 32c35.29 0 64 28.71 64 64 0 29.767-20.427 54.852-48 61.975z" data-original="#000000" class="active-path" data-old_color="#000000" fill="#FFFFFF"/></g></g> </svg>
