<?xml version="1.0" encoding="iso-8859-1"?>
<!-- Generator: Adobe Illustrator 19.0.0, SVG Export Plug-In . SVG Version: 6.00 Build 0)  -->
<svg version="1.1" id="Capa_1" xmlns="http://www.w3.org/2000/svg" xmlns:xlink="http://www.w3.org/1999/xlink" x="0px" y="0px"
	 viewBox="0 0 444.153 444.153" style="enable-background:new 0 0 444.153 444.153;" xml:space="preserve">
<g>
	<g>
		<path d="M435.875,155.802c-8.071-4.869-18.56-2.273-23.429,5.798c-0.139,0.231-0.273,0.464-0.401,0.701l-53.538,93.73
			l-29.338-50.313L441.4,26.143c4.996-8.012,2.551-18.556-5.461-23.552c-8.012-4.996-18.556-2.55-23.552,5.461L309.73,172.405
			l-55.791-95.573c-2.968-5.146-8.398-8.378-14.336-8.533c-5.937-0.217-11.541,2.741-14.711,7.765l-38.878,59.733l-34.475-58.965
			c-2.981-5.166-8.442-8.401-14.404-8.533c-5.907,0.084-11.405,3.03-14.746,7.902L2.923,263.933
			c-5.063,7.951-2.721,18.5,5.229,23.563c0.003,0.002,0.007,0.004,0.01,0.007c7.951,5.063,18.5,2.721,23.563-5.229
			c0.002-0.003,0.004-0.007,0.006-0.01L136.162,118.15l29.013,49.766L3.042,417.397c-5.351,7.76-3.398,18.388,4.362,23.738
			c7.76,5.351,18.388,3.398,23.738-4.362c0.175-0.253,0.342-0.511,0.503-0.773l152.815-235.076l57.054,97.775
			c2.996,5.192,8.496,8.431,14.49,8.533h0.256c5.884,0,11.354-3.031,14.473-8.021l37.99-60.774l35.191,60.262
			c3.219,5.09,8.729,8.279,14.746,8.533c6.085-0.012,11.703-3.264,14.746-8.533l68.267-119.467
			C446.542,171.161,443.946,160.671,435.875,155.802z M256.755,257.158l-51.49-88.286l33.143-50.978l50.876,87.211L256.755,257.158z
			"/>
	</g>
</g>
<g>
</g>
<g>
</g>
<g>
</g>
<g>
</g>
<g>
</g>
<g>
</g>
<g>
</g>
<g>
</g>
<g>
</g>
<g>
</g>
<g>
</g>
<g>
</g>
<g>
</g>
<g>
</g>
<g>
</g>
</svg>
