<?xml version="1.0"?>
<svg xmlns="http://www.w3.org/2000/svg" xmlns:xlink="http://www.w3.org/1999/xlink" version="1.1" id="Capa_1" x="0px" y="0px" viewBox="0 0 480 480" style="enable-background:new 0 0 480 480;" xml:space="preserve" width="512px" height="512px"><g><g>
	<g>
		<path d="M413.656,66.344l-64-64C348.156,0.844,346.122,0,344,0H72c-4.418,0-8,3.582-8,8v400c0,2.122,0.844,4.156,2.344,5.656    l64,64c1.5,1.5,3.534,2.344,5.656,2.344h272c4.418,0,8-3.582,8-8V72C416,69.878,415.156,67.844,413.656,66.344z M400,464H139.312    L80,404.688V16h260.688L400,75.312V464z" data-original="#000000" class="active-path" data-old_color="#000000" fill="#FFFFFF"/>
	</g>
</g><g>
	<g>
		<path d="M360,64H200c-4.418,0-8,3.582-8,8s3.582,8,8,8h160c4.418,0,8-3.582,8-8S364.418,64,360,64z" data-original="#000000" class="active-path" data-old_color="#000000" fill="#FFFFFF"/>
	</g>
</g><g>
	<g>
		<path d="M360,144H200c-4.418,0-8,3.582-8,8s3.582,8,8,8h160c4.418,0,8-3.582,8-8S364.418,144,360,144z" data-original="#000000" class="active-path" data-old_color="#000000" fill="#FFFFFF"/>
	</g>
</g><g>
	<g>
		<path d="M360,224H200c-4.418,0-8,3.582-8,8s3.582,8,8,8h160c4.418,0,8-3.582,8-8S364.418,224,360,224z" data-original="#000000" class="active-path" data-old_color="#000000" fill="#FFFFFF"/>
	</g>
</g><g>
	<g>
		<path d="M360,304H200c-4.418,0-8,3.582-8,8s3.582,8,8,8h160c4.418,0,8-3.582,8-8S364.418,304,360,304z" data-original="#000000" class="active-path" data-old_color="#000000" fill="#FFFFFF"/>
	</g>
</g><g>
	<g>
		<path d="M360,384H200c-4.418,0-8,3.582-8,8s3.582,8,8,8h160c4.418,0,8-3.582,8-8S364.418,384,360,384z" data-original="#000000" class="active-path" data-old_color="#000000" fill="#FFFFFF"/>
	</g>
</g><g>
	<g>
		<path d="M182.608,33.752c-3.451-2.761-8.487-2.203-11.248,1.248h-0.008L138.84,75.64l-12.896-14.328    c-3.088-3.16-8.153-3.219-11.313-0.131c-2.976,2.908-3.226,7.612-0.575,10.819l19.2,21.336c1.514,1.691,3.674,2.659,5.944,2.664    h0.24c2.346-0.077,4.543-1.172,6.016-3l38.4-48C186.617,41.549,186.059,36.513,182.608,33.752z" data-original="#000000" class="active-path" data-old_color="#000000" fill="#FFFFFF"/>
	</g>
</g><g>
	<g>
		<path d="M144,120c-17.673,0-32,14.327-32,32s14.327,32,32,32s32-14.327,32-32S161.673,120,144,120z M144,168    c-8.837,0-16-7.163-16-16s7.163-16,16-16s16,7.163,16,16S152.837,168,144,168z" data-original="#000000" class="active-path" data-old_color="#000000" fill="#FFFFFF"/>
	</g>
</g><g>
	<g>
		<path d="M144,200c-17.673,0-32,14.327-32,32s14.327,32,32,32s32-14.327,32-32S161.673,200,144,200z M144,248    c-8.837,0-16-7.163-16-16s7.163-16,16-16s16,7.163,16,16S152.837,248,144,248z" data-original="#000000" class="active-path" data-old_color="#000000" fill="#FFFFFF"/>
	</g>
</g><g>
	<g>
		<path d="M144,280c-17.673,0-32,14.327-32,32c0,17.673,14.327,32,32,32s32-14.327,32-32C176,294.327,161.673,280,144,280z M144,328    c-8.837,0-16-7.163-16-16s7.163-16,16-16s16,7.163,16,16S152.837,328,144,328z" data-original="#000000" class="active-path" data-old_color="#000000" fill="#FFFFFF"/>
	</g>
</g><g>
	<g>
		<path d="M144,360c-17.673,0-32,14.327-32,32c0,17.673,14.327,32,32,32s32-14.327,32-32C176,374.327,161.673,360,144,360z M144,408    c-8.837,0-16-7.163-16-16s7.163-16,16-16s16,7.163,16,16S152.837,408,144,408z" data-original="#000000" class="active-path" data-old_color="#000000" fill="#FFFFFF"/>
	</g>
</g><g>
	<g>
		<rect x="320" y="432" width="16" height="16" data-original="#000000" class="active-path" data-old_color="#000000" fill="#FFFFFF"/>
	</g>
</g><g>
	<g>
		<rect x="352" y="432" width="16" height="16" data-original="#000000" class="active-path" data-old_color="#000000" fill="#FFFFFF"/>
	</g>
</g></g> </svg>
