<?xml version="1.0" encoding="iso-8859-1"?>
<!-- Generator: Adobe Illustrator 19.0.0, SVG Export Plug-In . SVG Version: 6.00 Build 0)  -->
<svg version="1.1" id="Capa_1" xmlns="http://www.w3.org/2000/svg" xmlns:xlink="http://www.w3.org/1999/xlink" x="0px" y="0px"
	 viewBox="0 0 413.4 413.4" style="enable-background:new 0 0 413.4 413.4;" xml:space="preserve">
<g>
	<g>
		<path d="M404.788,177.506c-8.7-13-12.9-28.4-11.9-44v-0.2c0-0.2-0.1-0.4-0.1-0.6c1.1-20.9-10.2-40.5-28.8-50.1
			c-0.2-0.1-0.4-0.2-0.6-0.3c-13.9-7.1-25.2-18.4-32.3-32.3c-0.1-0.2-0.2-0.4-0.3-0.6c-9.6-18.6-29.2-29.9-50.1-28.7
			c-0.2,0-0.4-0.1-0.6-0.1h-0.2c-15.6,1-31-3.2-44-11.9c-17.7-11.6-40.6-11.6-58.4,0c-13,8.7-28.4,12.9-44,11.9h-0.2
			c-0.2,0-0.4,0.1-0.6,0.1c-20.9-1.1-40.5,10.2-50.1,28.8c-0.1,0.2-0.2,0.4-0.3,0.6c-7.1,13.9-18.4,25.2-32.3,32.3
			c-0.2,0.1-0.4,0.2-0.6,0.3c-18.6,9.5-29.9,29.2-28.7,50c0,0.2-0.1,0.4-0.1,0.6v0.2c0,1.2,0.2,2.4,0.2,3.7c0,14.3-4.1,28.3-12,40.3
			c-11.7,17.7-11.7,40.6-0.1,58.4c8.7,13,12.9,28.4,11.9,44v0.2c0,0.2,0.1,0.4,0.1,0.6c-1.1,20.9,10.2,40.5,28.8,50.1
			c0.2,0.1,0.4,0.2,0.6,0.3c13.9,7.1,25.2,18.4,32.3,32.3c0.1,0.2,0.2,0.4,0.3,0.6c9.6,18.6,29.2,29.8,50.1,28.7
			c0.2,0,0.4,0.1,0.6,0.1h0.2c1.2,0,2.4-0.2,3.7-0.2c14.3,0,28.3,4.1,40.3,12c17.7,11.7,40.6,11.7,58.4,0.1
			c13-8.7,28.4-12.9,44-11.9h0.2c0.2,0,0.4-0.1,0.6-0.1c20.9,1.1,40.5-10.2,50.1-28.8c0.1-0.2,0.2-0.4,0.3-0.6
			c7.1-13.9,18.4-25.2,32.3-32.3c0.2-0.1,0.4-0.2,0.6-0.3c18.6-9.6,29.9-29.2,28.7-50.1c0-0.2,0.1-0.4,0.1-0.6v-0.2
			c0-1.2-0.2-2.4-0.2-3.7c0-14.3,4.1-28.3,12-40.3C416.288,218.206,416.288,195.206,404.788,177.506z M86.288,141.506
			c0-34.6,23.8-62.7,52.9-62.7c29.1,0,52.9,28.1,52.9,62.7c0,34.6-23.8,62.8-52.9,62.8
			C109.988,204.206,86.288,176.106,86.288,141.506z M140.988,335.706c-2.8,4.7-9,6.2-13.7,3.4c-4.7-2.8-6.2-9-3.4-13.7l148.8-247.8
			c2.8-4.7,9-6.2,13.7-3.4s6.2,9,3.4,13.7L140.988,335.706z M274.588,334.506c-29.2,0-53-28.1-53-62.7c0-34.6,23.8-62.7,53-62.7
			s52.9,28.1,52.9,62.7C327.588,306.406,303.788,334.506,274.588,334.506z"/>
	</g>
</g>
<g>
	<g>
		<path d="M274.588,229.206c-18.2,0-33,19.2-33,42.7s14.8,42.7,33,42.7c18.1,0,32.9-19.2,32.9-42.7S292.788,229.206,274.588,229.206
			z"/>
	</g>
</g>
<g>
	<g>
		<path d="M138.988,98.806c-18.1,0-32.9,19.1-32.9,42.7c0,23.6,14.8,42.8,32.9,42.8c18.1-0.1,32.9-19.4,32.9-42.8
			C171.888,118.006,157.088,98.806,138.988,98.806z"/>
	</g>
</g>
<g>
</g>
<g>
</g>
<g>
</g>
<g>
</g>
<g>
</g>
<g>
</g>
<g>
</g>
<g>
</g>
<g>
</g>
<g>
</g>
<g>
</g>
<g>
</g>
<g>
</g>
<g>
</g>
<g>
</g>
</svg>
