<?xml version="1.0"?>
<svg xmlns="http://www.w3.org/2000/svg" id="Capa_1" enable-background="new 0 0 512 512" height="512px" viewBox="0 0 512 512" width="512px"><g><g><path d="m489.598 218.951c-2.693 2.693-149.132 149.131-154.041 154.041 18.469 14.031 41.484 22.373 66.414 22.373 60.654 0 110-49.346 110-110 0-24.93-8.342-47.945-22.373-66.414z" data-original="#000000" class="active-path" data-old_color="#000000" fill="#FFFFFF"/><path d="m291.971 285.365c0 24.93 8.342 47.945 22.373 66.413 4.889-4.889 149.478-149.476 154.041-154.04-18.469-14.031-41.482-22.373-66.414-22.373-60.654 0-110 49.346-110 110z" data-original="#000000" class="active-path" data-old_color="#000000" fill="#FFFFFF"/><path d="m267.18 347h9.502c-35.541-72.138-2.725-160.516 72.998-191.374v-155.626h-349.651v512h195.92c-16.284-17.432-26.268-41.82-26.268-67.5-.001-53.762 43.738-97.5 97.499-97.5zm-145-234.5h37.5v-37.5h30v37.5h37.5v30h-37.5v37.5h-30v-37.5h-37.5zm-54.5 132.5h160v30h-160zm60 150h-60v-30h60zm50-60h-110v-30h110z" data-original="#000000" class="active-path" data-old_color="#000000" fill="#FFFFFF"/><path d="m296.614 377h-29.434c-37.219 0-67.5 30.28-67.5 67.5s30.28 67.5 67.5 67.5h52.5v-113.757c-8.457-6.208-16.201-13.333-23.066-21.243z" data-original="#000000" class="active-path" data-old_color="#000000" fill="#FFFFFF"/><path d="m349.68 415.047v96.953h52.5c37.221 0 67.5-30.28 67.5-67.5 0-11.683-2.986-22.68-8.23-32.273-35.499 16.601-76.177 17.324-111.77 2.82z" data-original="#000000" class="active-path" data-old_color="#000000" fill="#FFFFFF"/></g></g> </svg>
