<?xml version="1.0"?>
<svg xmlns="http://www.w3.org/2000/svg" xmlns:xlink="http://www.w3.org/1999/xlink" viewBox="0 0 64 64" width="512" height="512"><defs><linearGradient id="linear-gradient" x1="-2" y1="32" x2="62.195" y2="32" gradientUnits="userSpaceOnUse"><stop offset="0" stop-color="#f9a86d"/><stop offset="0.503" stop-color="#f05361"/><stop offset="1" stop-color="#b72563"/></linearGradient></defs><g id="Gradient_outline" data-name="Gradient outline"><path d="M32,2A30,30,0,1,0,62,32,30.034,30.034,0,0,0,32,2ZM59.975,33a27.9,27.9,0,0,1-7.5,18.066l-1.773-1.773-1.414,1.414,1.773,1.773A27.9,27.9,0,0,1,33,59.975V57H31v2.975a27.9,27.9,0,0,1-18.066-7.5l1.773-1.773-1.414-1.414L11.52,51.066A27.9,27.9,0,0,1,4.025,33H7V31H4.025A27.9,27.9,0,0,1,11.52,12.934l1.773,1.773,1.414-1.414L12.934,11.52A27.9,27.9,0,0,1,31,4.025V7h2V4.025A27.9,27.9,0,0,1,51.066,11.52l-1.773,1.773,1.414,1.414,1.773-1.773A27.9,27.9,0,0,1,59.975,31H57v2Z" style="fill:url(#linear-gradient)"/><path d="M32,28a4,4,0,1,0,4,4A4,4,0,0,0,32,28Zm0,6a2,2,0,1,1,2-2A2,2,0,0,1,32,34Z" style="fill:url(#linear-gradient)"/><path d="M32,13A19,19,0,1,0,51,32,19.021,19.021,0,0,0,32,13ZM36,15.5a16.868,16.868,0,0,1,4.691,1.921L36,22.107Zm-8,0v6.612l-4.691-4.691A16.868,16.868,0,0,1,28,15.5ZM17.416,23.309,22.107,28H15.5A16.868,16.868,0,0,1,17.416,23.309ZM15.5,36h6.612l-4.691,4.691A16.868,16.868,0,0,1,15.5,36ZM28,48.505a16.868,16.868,0,0,1-4.691-1.921L28,41.893Zm8,0V41.893l4.691,4.691A16.868,16.868,0,0,1,36,48.505Zm6.373-3.067-6.666-6.667A1,1,0,0,0,34,39.479v9.393a15.689,15.689,0,0,1-4,0V39.479a1,1,0,0,0-1.707-.708l-6.666,6.667a17.1,17.1,0,0,1-3.065-3.065l6.667-6.666A1,1,0,0,0,24.521,34H15.128a15.689,15.689,0,0,1,0-4h9.393a1,1,0,0,0,.708-1.707l-6.667-6.666a17.1,17.1,0,0,1,3.065-3.065l6.666,6.667a1,1,0,0,0,.707.292.987.987,0,0,0,.383-.076A1,1,0,0,0,30,24.521V15.128a15.689,15.689,0,0,1,4,0v9.393a1,1,0,0,0,.617.924.987.987,0,0,0,.383.076,1,1,0,0,0,.707-.292l6.666-6.667a17.1,17.1,0,0,1,3.065,3.065l-6.667,6.666A1,1,0,0,0,39.479,30h9.393a15.689,15.689,0,0,1,0,4H39.479a1,1,0,0,0-.708,1.707l6.667,6.666A17.1,17.1,0,0,1,42.373,45.438Zm4.211-22.129A16.868,16.868,0,0,1,48.505,28H41.893ZM48.505,36a16.868,16.868,0,0,1-1.921,4.691L41.893,36Z" style="fill:url(#linear-gradient)"/><path d="M32,9A23,23,0,1,0,55,32,23.026,23.026,0,0,0,32,9Zm0,44A21,21,0,1,1,53,32,21.024,21.024,0,0,1,32,53Z" style="fill:url(#linear-gradient)"/></g></svg>
