<?xml version="1.0" encoding="utf-8"?>
<!-- Generator: Adobe Illustrator 19.0.0, SVG Export Plug-In . SVG Version: 6.00 Build 0)  -->
<svg xmlns="http://www.w3.org/2000/svg" xmlns:xlink="http://www.w3.org/1999/xlink" version="1.1" id="Layer_1" x="0px" y="0px" viewBox="0 2 98 98" style="enable-background:new 0 2 98 98;" xml:space="preserve" width="512" height="512">
<style type="text/css">
	.st0{fill:url(#SVGID_1_);}
</style>
<linearGradient id="SVGID_1_" gradientUnits="userSpaceOnUse" x1="49" y1="13.0999" x2="49" y2="88.9001">
	<stop offset="0" style="stop-color:#00EFD1"/>
	<stop offset="1" style="stop-color:#00ACEA"/>
</linearGradient>
<path class="st0" d="M49,13.1c-20.9,0-37.9,17-37.9,37.9c0,20.9,17,37.9,37.9,37.9c20.9,0,37.9-17,37.9-37.9  C86.9,30.1,69.9,13.1,49,13.1z M49,19.1c17.6,0,31.9,14.3,31.9,31.9c0,7.1-2.3,13.6-6.2,18.9c-6.5-7.1-14.4-11.3-23-12.1  c7.3-1.3,12.9-7.7,12.9-15.5c0-8.7-7-15.7-15.6-15.7c-8.6,0-15.6,7-15.6,15.7c0,7.7,5.6,14.2,12.9,15.5c-8.6,0.7-16.5,4.9-23,12.1  c-3.9-5.3-6.2-11.8-6.2-18.9C17.1,33.4,31.4,19.1,49,19.1z M39.4,42.4c0-5.3,4.3-9.7,9.6-9.7c5.3,0,9.6,4.4,9.6,9.7  s-4.3,9.7-9.6,9.7C43.7,52.1,39.4,47.7,39.4,42.4z M27.4,74.4c6-6.9,13.6-10.7,21.6-10.7c8,0,15.6,3.8,21.6,10.7  C65,79.7,57.3,82.9,49,82.9C40.7,82.9,33,79.7,27.4,74.4z"/>
</svg>
